<svg xmlns="http://www.w3.org/2000/svg" width="760" height="280" viewBox="0 0 760 280" font-family="sans-serif">
<rect width="760" height="280" fill="#0A1210"/>
<line x1="46" y1="30.0" x2="714" y2="30.0" stroke="#1F3A31" stroke-width="1"/>
<text x="38" y="34.0" fill="#8FA89E" font-size="11" text-anchor="end">100</text>
<line x1="46" y1="82.5" x2="714" y2="82.5" stroke="#1F3A31" stroke-width="1"/>
<text x="38" y="86.5" fill="#8FA89E" font-size="11" text-anchor="end">75</text>
<line x1="46" y1="135.0" x2="714" y2="135.0" stroke="#1F3A31" stroke-width="1"/>
<text x="38" y="139.0" fill="#8FA89E" font-size="11" text-anchor="end">50</text>
<line x1="46" y1="187.5" x2="714" y2="187.5" stroke="#1F3A31" stroke-width="1"/>
<text x="38" y="191.5" fill="#8FA89E" font-size="11" text-anchor="end">25</text>
<line x1="46" y1="240.0" x2="714" y2="240.0" stroke="#1F3A31" stroke-width="1"/>
<text x="38" y="244.0" fill="#8FA89E" font-size="11" text-anchor="end">0</text>
<text x="46.0" y="264" fill="#8FA89E" font-size="11" text-anchor="middle">第 1 轮</text>
<text x="179.6" y="264" fill="#8FA89E" font-size="11" text-anchor="middle">第 2 轮</text>
<text x="313.2" y="264" fill="#8FA89E" font-size="11" text-anchor="middle">第 3 轮</text>
<text x="446.8" y="264" fill="#8FA89E" font-size="11" text-anchor="middle">第 4 轮</text>
<text x="580.4" y="264" fill="#8FA89E" font-size="11" text-anchor="middle">第 5 轮</text>
<text x="714.0" y="264" fill="#8FA89E" font-size="11" text-anchor="middle">第 6 轮</text>
<polyline points="46.0,161.2 179.6,213.8 313.2,213.8 446.8,135.0 580.4,161.2 714.0,161.2" fill="none" stroke="#4CC38A" stroke-width="2.5"/>
<circle cx="46.0" cy="161.2" r="4" fill="#4CC38A"/>
<text x="56.0" y="152.2" fill="#4CC38A" font-size="11" text-anchor="start">38%</text>
<circle cx="179.6" cy="213.8" r="4" fill="#4CC38A"/>
<text x="179.6" y="204.8" fill="#4CC38A" font-size="11" text-anchor="middle">12%</text>
<circle cx="313.2" cy="213.8" r="4" fill="#4CC38A"/>
<text x="313.2" y="204.8" fill="#4CC38A" font-size="11" text-anchor="middle">12%</text>
<circle cx="446.8" cy="135.0" r="4" fill="#4CC38A"/>
<text x="446.8" y="126.0" fill="#4CC38A" font-size="11" text-anchor="middle">50%</text>
<circle cx="580.4" cy="161.2" r="4" fill="#4CC38A"/>
<text x="580.4" y="152.2" fill="#4CC38A" font-size="11" text-anchor="middle">38%</text>
<circle cx="714.0" cy="161.2" r="4" fill="#4CC38A"/>
<text x="704.0" y="152.2" fill="#4CC38A" font-size="11" text-anchor="end">38%</text>
<polyline points="46.0,63.8 179.6,63.8 313.2,57.4 446.8,73.0 580.4,69.8 714.0,63.8" fill="none" stroke="#E0B25C" stroke-width="2.5" stroke-dasharray="5 4"/>
<circle cx="46.0" cy="63.8" r="4" fill="#E0B25C"/>
<text x="56.0" y="54.8" fill="#E0B25C" font-size="11" text-anchor="start">7.12</text>
<circle cx="179.6" cy="63.8" r="4" fill="#E0B25C"/>
<text x="179.6" y="54.8" fill="#E0B25C" font-size="11" text-anchor="middle">7.12</text>
<circle cx="313.2" cy="57.4" r="4" fill="#E0B25C"/>
<text x="313.2" y="48.4" fill="#E0B25C" font-size="11" text-anchor="middle">7.38</text>
<circle cx="446.8" cy="73.0" r="4" fill="#E0B25C"/>
<text x="446.8" y="64.0" fill="#E0B25C" font-size="11" text-anchor="middle">6.75</text>
<circle cx="580.4" cy="69.8" r="4" fill="#E0B25C"/>
<text x="580.4" y="60.8" fill="#E0B25C" font-size="11" text-anchor="middle">6.88</text>
<circle cx="714.0" cy="63.8" r="4" fill="#E0B25C"/>
<text x="704.0" y="54.8" fill="#E0B25C" font-size="11" text-anchor="end">7.12</text>
<text x="46" y="20" fill="#4CC38A" font-size="12">— 首轮通过率（%，左轴）</text>
<text x="236" y="20" fill="#E0B25C" font-size="12">- - 平均尝试次数</text>
</svg>